<?xml version="1.0" standalone="no"?>
<!DOCTYPE svg PUBLIC "-//W3C//DTD SVG 20010904//EN"
 "http://www.w3.org/TR/2001/REC-SVG-20010904/DTD/svg10.dtd">
<svg version="1.0" xmlns="http://www.w3.org/2000/svg"
 width="260.000000pt" height="260.000000pt" viewBox="0 0 260.000000 260.000000"
 preserveAspectRatio="xMidYMid meet">
<metadata>
Created by potrace 1.11, written by Peter Selinger 2001-2013
</metadata>
<g transform="translate(0.000000,260.000000) scale(0.100000,-0.100000)"
fill="#000000" stroke="none">
<path d="M1765 2364 c1 -21 -4 -38 -11 -41 -7 -2 -11 -10 -8 -18 3 -7 -2 -19
-10 -28 -9 -9 -16 -23 -16 -31 0 -9 -3 -16 -7 -16 -5 0 -19 -18 -32 -40 -14
-22 -33 -43 -43 -46 -10 -3 -16 -10 -13 -15 4 -5 0 -9 -9 -9 -8 0 -17 -6 -20
-12 -3 -10 -9 -8 -19 4 -8 10 -26 19 -41 20 -14 1 -26 6 -26 10 0 4 -7 8 -16
8 -9 0 -30 10 -47 22 -17 12 -27 17 -23 10 4 -7 2 -12 -3 -12 -6 0 -11 4 -11
9 0 9 -38 24 -53 22 -4 -1 -10 6 -13 14 -3 8 -10 13 -14 10 -4 -2 -20 7 -36
20 -16 14 -34 25 -41 25 -6 0 -13 6 -15 12 -3 7 -10 -2 -16 -20 -6 -18 -7 -30
-2 -27 6 4 10 -2 10 -13 0 -10 20 -40 45 -65 25 -26 45 -44 45 -41 0 3 7 -1
15 -8 33 -29 45 -38 45 -33 0 4 6 0 14 -7 7 -7 23 -20 35 -28 25 -17 28 -40 5
-40 -8 0 -35 -14 -60 -30 -24 -17 -44 -28 -44 -24 0 3 -17 -10 -37 -30 -21
-20 -43 -36 -50 -36 -7 0 -13 -4 -13 -9 0 -5 -18 -28 -39 -52 -22 -23 -38 -46
-35 -50 2 -4 -3 -9 -11 -13 -8 -3 -15 -12 -15 -21 0 -8 -4 -15 -8 -15 -4 0 -9
-10 -9 -22 -1 -13 -5 -43 -9 -68 l-7 -45 24 16 c13 9 22 20 19 23 -3 4 3 12
13 17 9 6 17 17 17 24 0 8 3 15 8 15 4 0 23 15 42 33 60 54 111 87 240 154 36
19 69 38 75 44 14 14 35 11 35 -5 0 -8 4 -16 8 -18 20 -8 53 -71 55 -103 1
-19 5 -35 8 -35 9 0 4 -170 -5 -191 -9 -20 -13 -73 -6 -77 11 -7 40 11 40 24
0 8 5 14 11 14 5 0 7 5 4 10 -3 6 -1 10 4 10 6 0 11 7 11 15 0 8 4 15 10 15 5
0 9 3 8 8 0 4 6 24 15 44 10 21 17 44 17 52 0 8 4 17 8 20 5 3 8 19 7 36 -1
16 3 30 9 30 7 0 7 3 1 8 -12 8 -14 62 -3 62 4 0 3 12 -3 28 -6 15 -10 28 -10
29 2 9 -32 83 -38 83 -5 0 -13 11 -19 25 -10 21 -6 31 28 82 21 32 42 72 46
88 4 17 11 35 16 42 5 7 6 18 2 24 -4 7 -3 9 3 6 7 -5 10 9 9 38 -1 26 3 45 9
45 6 0 5 3 -2 8 -6 4 -13 21 -16 37 -2 17 -11 31 -19 33 -12 2 -15 -6 -13 -34z"/>
<path d="M1561 2343 c-1 -6 -10 -9 -21 -6 -24 6 -65 -39 -65 -72 -1 -27 56
-80 67 -63 5 9 8 10 8 1 0 -8 9 -7 30 3 17 9 30 22 30 30 0 8 4 13 9 9 6 -3 6
6 1 24 -4 16 -6 32 -2 35 3 3 -2 6 -12 6 -9 0 -14 5 -11 10 3 6 0 10 -9 10 -8
0 -17 6 -19 13 -4 8 -6 8 -6 0z"/>
<path d="M1040 1690 c0 -5 0 -13 1 -16 0 -4 -4 -10 -11 -14 -6 -4 -12 -13 -13
-21 -2 -8 -6 -19 -10 -26 -4 -6 -8 -23 -9 -37 -1 -14 -5 -26 -9 -26 -4 0 -7
-12 -7 -27 0 -16 -1 -46 -2 -68 -3 -55 9 -124 26 -157 8 -15 11 -28 7 -28 -5
0 -3 -4 2 -8 6 -4 17 -20 25 -37 8 -16 23 -38 34 -47 18 -17 17 -20 -50 -86
-78 -78 -96 -99 -118 -139 -8 -15 -15 -23 -16 -18 0 6 -10 -10 -22 -35 -12
-25 -26 -48 -31 -51 -5 -4 -6 -12 -3 -18 4 -6 2 -11 -4 -11 -6 0 -9 -4 -6 -9
7 -11 -4 -42 -13 -37 -7 5 -11 -32 -16 -171 -3 -76 -1 -103 8 -103 7 0 6 -4
-3 -10 -10 -6 -11 -10 -2 -10 6 0 12 -11 12 -25 0 -14 13 -55 29 -90 17 -36
27 -65 23 -65 -4 0 -2 -4 4 -8 6 -4 23 -26 38 -49 28 -45 51 -55 60 -25 7 23
1 115 -8 130 -4 7 -2 12 6 12 8 0 9 3 3 8 -16 11 -18 52 -3 53 7 0 4 4 -7 9
-11 5 -14 9 -6 9 11 1 11 4 1 16 -10 12 -10 15 0 15 10 0 10 3 0 15 -7 8 -8
15 -3 15 5 0 8 16 7 35 -2 24 0 33 8 29 7 -5 8 -3 4 5 -9 14 2 84 12 77 4 -2
8 10 9 28 1 31 54 140 86 177 10 11 17 21 17 23 0 6 80 86 86 86 3 0 14 9 26
19 11 11 27 17 35 14 14 -6 62 -45 130 -110 18 -17 33 -29 33 -26 0 4 38 -40
63 -72 4 -5 21 -26 37 -45 42 -50 104 -159 107 -189 6 -50 14 -72 23 -66 6 3
10 0 11 -7 0 -7 9 10 18 37 10 28 16 56 13 62 -2 7 0 13 5 13 5 0 10 7 10 15
0 8 -5 15 -10 15 -5 0 -4 7 3 15 7 8 8 15 3 15 -9 0 -14 32 -14 83 0 9 -5 17
-10 17 -6 0 -8 4 -4 9 3 5 1 12 -5 16 -6 4 -8 11 -4 16 3 5 1 16 -5 23 -7 8
-10 18 -9 22 6 19 -68 151 -104 187 -21 21 -38 42 -38 46 0 4 -14 15 -31 25
l-31 18 23 22 c13 12 39 31 57 41 17 11 32 23 32 27 0 4 7 8 17 8 9 0 14 2 11
5 -2 3 15 25 39 50 37 39 96 120 98 135 0 3 6 15 13 26 6 12 8 24 5 28 -3 3
-1 6 5 6 7 0 12 7 12 15 0 23 -22 18 -57 -15 -18 -17 -37 -30 -44 -30 -7 0 -9
-3 -6 -7 8 -7 -43 -43 -90 -64 -18 -8 -33 -17 -33 -21 0 -5 -9 -8 -20 -8 -11
0 -20 -5 -20 -11 0 -6 -7 -9 -15 -5 -8 3 -15 1 -15 -5 0 -6 -7 -9 -15 -5 -8 3
-15 2 -15 -3 0 -5 -11 -12 -25 -15 -13 -3 -37 -11 -52 -17 -15 -6 -28 -9 -29
-7 0 2 -8 -3 -17 -10 -13 -11 -20 -11 -44 2 -35 18 -93 71 -93 85 0 6 -4 11
-8 11 -5 0 -17 17 -28 38 -10 20 -26 42 -34 49 -8 7 -11 13 -6 13 5 0 3 7 -4
15 -14 16 -23 165 -11 165 4 0 8 16 9 35 2 26 -1 35 -13 35 -8 0 -15 -4 -15
-10z"/>
<path d="M1280 1527 c-37 -17 -51 -34 -55 -65 -6 -50 38 -114 66 -96 5 3 9 0
9 -6 0 -6 4 -8 10 -5 5 3 20 8 32 10 12 3 27 13 32 22 19 32 35 83 26 83 -5 0
-12 9 -15 21 -5 16 -62 52 -77 48 -2 0 -14 -6 -28 -12z"/>
</g>
</svg>
